<svg width="54" height="54" viewBox="0 0 54 54" fill="none" xmlns="http://www.w3.org/2000/svg">
<g clip-path="url(#clip0_173_1145)">
<path d="M17.4472 0.383789C14.9487 0.383789 12.916 2.41649 12.916 4.91494C12.916 7.41349 14.9487 9.44619 17.4472 9.44619C19.9457 9.44619 21.9785 7.41349 21.9785 4.91494C21.9785 2.41649 19.9458 0.383789 17.4472 0.383789ZM17.4472 7.33671C16.1118 7.33671 15.0254 6.25028 15.0254 4.91483C15.0254 3.57939 16.1118 2.49306 17.4472 2.49306C18.7827 2.49306 19.8691 3.57949 19.8691 4.91483C19.8691 6.25017 18.7827 7.33671 17.4472 7.33671Z" fill="#87BFE7"/>
<path d="M37.9943 0.383789C35.4958 0.383789 33.4631 2.41649 33.4631 4.91494C33.4631 7.41349 35.4959 9.44619 37.9943 9.44619C40.4928 9.44619 42.5256 7.41349 42.5256 4.91494C42.5256 2.41649 40.4929 0.383789 37.9943 0.383789ZM37.9943 7.33671C36.6589 7.33671 35.5725 6.25028 35.5725 4.91483C35.5725 3.57939 36.6589 2.49306 37.9943 2.49306C39.3298 2.49306 40.4162 3.57949 40.4162 4.91483C40.4162 6.25017 39.3298 7.33671 37.9943 7.33671Z" fill="#87BFE7"/>
<path d="M52.9453 51.5069H47.54L47.4917 28.9142C47.4905 28.3325 47.0186 27.8618 46.437 27.8618H46.4348C45.8524 27.863 45.3812 28.3363 45.3824 28.9187L45.4306 51.5068H38.8828L38.8345 26.8234C38.8344 26.7601 38.8278 26.6984 38.8169 26.6382V25.4449C38.8169 24.3994 38.6589 23.3751 38.3477 22.3886C39.4647 21.7716 40.7205 21.4463 42.0239 21.4435C42.0297 21.4435 42.0351 21.4435 42.0409 21.4435C44.0345 21.4435 45.9084 22.1928 47.3186 23.5545C48.724 24.9117 49.5003 26.7159 49.5044 28.6365L49.5213 33.3469C49.5234 33.9281 49.9951 34.3978 50.5759 34.3978H50.5798C51.1622 34.3957 51.6326 33.9218 51.6306 33.3393L51.6138 28.6305C51.6085 26.1358 50.6035 23.7941 48.7838 22.0371C47.7966 21.0839 46.633 20.367 45.366 19.9112C46.2794 18.9668 46.781 17.7273 46.7781 16.4107C46.7721 13.6448 44.5201 11.3988 41.7556 11.3988C41.752 11.3988 41.7483 11.3988 41.7447 11.3988C38.9753 11.4048 36.7271 13.6627 36.7329 16.4321C36.7357 17.7738 37.2608 19.0339 38.2115 19.9806C38.2428 20.0117 38.2752 20.041 38.3071 20.0712C38.0353 20.1835 37.7686 20.3085 37.5073 20.4457C36.2203 18.1451 34.1191 16.4347 31.6335 15.5965C32.6973 14.584 33.3625 13.1561 33.3625 11.575C33.3625 8.51204 30.8707 6.02024 27.8079 6.02024C24.7451 6.02024 22.2533 8.51204 22.2533 11.575C22.2533 13.2371 22.9881 14.73 24.1488 15.7488C21.857 16.6286 19.9237 18.2631 18.7085 20.4185C18.3392 20.2274 17.9589 20.0608 17.5695 19.9193C18.4496 19.0142 18.9932 17.7801 18.9932 16.4208C18.9932 13.6513 16.7401 11.3982 13.9706 11.3982C11.2011 11.3982 8.94797 13.6513 8.94797 16.4208C8.94797 17.8534 9.55178 19.1468 10.5171 20.0626C7.07548 21.476 4.6537 24.7935 4.6537 28.651V33.3613C4.6537 33.9438 5.12599 34.416 5.70839 34.416C6.29079 34.416 6.76308 33.9438 6.76308 33.3613V28.651C6.76308 24.6767 10.1119 21.4435 14.2283 21.4435C15.5137 21.4435 16.7551 21.7577 17.8626 22.3567C17.5446 23.3531 17.3831 24.3881 17.3831 25.4449V51.5068H11.023V28.9258C11.023 28.3433 10.5507 27.8711 9.96827 27.8711C9.38587 27.8711 8.91359 28.3433 8.91359 28.9258V51.5069H1.05469C0.472289 51.5069 0 51.9791 0 52.5616C0 53.1441 0.472289 53.6163 1.05469 53.6163H52.9453C53.5277 53.6163 54 53.1441 54 52.5616C54 51.9791 53.5277 51.5069 52.9453 51.5069ZM41.7493 13.5082C41.7515 13.5082 41.7534 13.5082 41.7555 13.5082C43.3589 13.5082 44.6653 14.8111 44.6688 16.4152C44.6704 17.1934 44.3689 17.9255 43.8199 18.477C43.2709 19.0284 42.5399 19.333 41.7617 19.3347C41.7595 19.3347 41.7575 19.3347 41.7553 19.3347C40.9796 19.3347 40.2498 19.0334 39.6999 18.4859C39.1484 17.9368 38.8439 17.2059 38.8422 16.4278C38.8389 14.8214 40.1429 13.5117 41.7493 13.5082ZM13.9706 19.3342C12.3643 19.3342 11.0573 18.0273 11.0573 16.4209C11.0573 14.8145 12.3642 13.5077 13.9706 13.5077C15.5769 13.5077 16.8839 14.8145 16.8839 16.4209C16.8839 18.0273 15.5769 19.3342 13.9706 19.3342ZM27.8079 8.12972C29.7076 8.12972 31.2531 9.67526 31.2531 11.5751C31.2531 13.4749 29.7076 15.0204 27.8079 15.0204C25.9082 15.0204 24.3626 13.4749 24.3626 11.5751C24.3626 9.67526 25.9082 8.12972 27.8079 8.12972ZM22.2144 51.5068H19.4925V38.5196C20.2637 39.0857 21.1987 39.4493 22.2144 39.532V51.5068ZM33.0872 24.702C32.5048 24.702 32.0325 25.1742 32.0325 25.7567V51.5069H28.9991V38.7722C28.9991 38.1897 28.5268 37.7175 27.9444 37.7175C27.362 37.7175 26.8897 38.1897 26.8897 38.7722V51.5068H24.3238V25.7566C24.3238 25.1741 23.8515 24.7019 23.2691 24.7019C22.6868 24.7019 22.2145 25.1741 22.2145 25.7566V37.4118C20.6785 37.2048 19.4926 35.9361 19.4926 34.406V25.445C19.4926 24.3656 19.7042 23.3147 20.1211 22.3216C20.122 22.3196 20.1227 22.3176 20.1235 22.3155C21.4497 19.1651 24.5803 17.1297 28.1001 17.1297C31.6371 17.1297 34.7739 19.1789 36.0915 22.3503C36.5004 23.3346 36.7078 24.3758 36.7078 25.4449V34.4059C36.7078 35.8838 35.6014 37.1178 34.1419 37.387V25.7567C34.1419 25.1743 33.6696 24.702 33.0872 24.702ZM34.1418 51.5068V39.5174C35.1151 39.4097 36.0085 39.0426 36.7481 38.4886L36.7736 51.5068H34.1418Z" fill="#87BFE7"/>
</g>
<defs>
<clipPath id="clip0_173_1145">
<rect width="54" height="54" />
</clipPath>
</defs>
</svg>
