<svg width="54" height="54" viewBox="0 0 54 54" fill="none" xmlns="http://www.w3.org/2000/svg">
<path d="M47.429 2.93171C45.4741 1.00364 42.8849 -0.0394405 40.1363 0.00127032C37.4928 0.0380788 34.997 1.09287 33.1087 2.97126C31.2204 4.84987 30.1529 7.34009 30.1027 9.98323C30.0469 12.9238 31.2636 15.7439 33.4408 17.7201C34.2597 18.4634 34.7294 19.5292 34.7294 20.6443V21.9906C34.7294 22.8651 35.1391 23.6452 35.7761 24.1506V27.2188C35.7761 28.6491 36.9397 29.8127 38.37 29.8127H42.1921C43.6225 29.8127 44.7861 28.6491 44.7861 27.2188V24.1505C45.423 23.645 45.8328 22.865 45.8328 21.9905V20.6442C45.8328 19.5323 46.3081 18.4613 47.1369 17.706C49.2497 15.7803 50.4615 13.0374 50.4615 10.1806C50.4615 7.43448 49.3845 4.8601 47.429 2.93171ZM42.6767 27.2187C42.6767 27.4858 42.4593 27.7032 42.1921 27.7032H38.37C38.1029 27.7032 37.8855 27.4858 37.8855 27.2187V24.7476H42.6767V27.2187ZM45.716 16.1469C44.4498 17.301 43.7234 18.9402 43.7234 20.6442V21.9905C43.7234 22.3477 43.4328 22.6383 43.0756 22.6383H41.3358V15.0131C41.3358 14.4307 40.8635 13.9584 40.2811 13.9584C39.6987 13.9584 39.2264 14.4307 39.2264 15.0131V22.6383H37.4865C37.1293 22.6383 36.8387 22.3477 36.8387 21.9905V20.6442C36.8387 18.9355 36.1169 17.3004 34.8586 16.1582C33.1321 14.5912 32.1673 12.355 32.2116 10.0232C32.2933 5.72009 35.8615 2.17034 40.1657 2.11043C40.2045 2.1099 40.2429 2.10959 40.2819 2.10959C42.4173 2.10959 44.4257 2.93235 45.948 4.43359C47.4983 5.96246 48.3522 8.00348 48.3522 10.1806C48.3522 12.4454 47.3914 14.6201 45.716 16.1469Z" fill="#87BFE7"/>
<path d="M53.5204 35.2162C52.6033 33.1393 50.1677 32.1954 48.0903 33.1125C48.085 33.1148 48.0797 33.1172 48.0747 33.1196L41.2178 36.2816C40.6888 36.5256 40.4578 37.1522 40.7017 37.6811C40.9455 38.21 41.5722 38.4412 42.1011 38.1972L48.9493 35.0392C49.9609 34.5973 51.1446 35.0576 51.5909 36.0684C52.0382 37.0814 51.5779 38.2697 50.5648 38.7169L36.533 44.9123C34.3108 45.8936 31.7889 45.8364 29.6137 44.7555L24.4773 42.2037C21.7388 40.8434 18.5644 40.7712 15.7673 42.0064L15.671 42.0488L11.8366 33.3642L17.1612 31.0134C19.699 29.8927 22.5307 29.8026 25.1343 30.7586L35.4633 34.5517C36.4029 34.8968 36.9037 35.9481 36.5798 36.8953C36.2495 37.8603 35.1945 38.3796 34.2285 38.0528L26.2412 35.3513C25.6893 35.1645 25.0909 35.4606 24.9042 36.0125C24.7175 36.5643 25.0135 37.1628 25.5654 37.3495L33.5527 40.0511C33.9716 40.1928 34.398 40.26 34.818 40.26C36.4675 40.26 38.0134 39.2215 38.5756 37.578C39.2678 35.5548 38.1977 33.309 36.1905 32.5718L25.8615 28.7787C22.7419 27.633 19.3495 27.7414 16.3093 29.0837L10.9515 31.4493C10.2508 30.3793 8.85587 29.9395 7.64783 30.4727L0.810304 33.4918C0.429141 33.66 0.182766 34.0369 0.181606 34.4535L0.129399 52.9424C0.128344 53.3093 0.317977 53.6503 0.630164 53.8429C0.799441 53.9473 0.991499 54 1.18408 54C1.34672 54 1.50977 53.9625 1.65964 53.8867L15.0357 47.1296C16.242 46.5804 16.8456 45.2338 16.4979 43.9896L16.6191 43.9361C18.841 42.9548 21.3631 43.0121 23.5386 44.0928L28.6749 46.6445C31.413 48.0051 34.5878 48.0769 37.3848 46.842L51.4165 40.6466C53.4938 39.7294 54.4375 37.2935 53.5204 35.2162ZM14.1557 45.2125C14.139 45.2199 14.1224 45.2278 14.1061 45.236L2.24362 51.2285L2.25649 46.6401L5.33986 45.126C5.86277 44.8692 6.07846 44.2372 5.82175 43.7144C5.56493 43.1915 4.93286 42.9757 4.41016 43.2325L2.26303 44.2869L2.28866 35.1448L8.49938 32.4025C8.77961 32.2792 9.10751 32.4061 9.23102 32.6859L14.1665 43.8642L14.1674 43.8659L14.4391 44.4812C14.5626 44.7609 14.4355 45.089 14.1557 45.2125Z" fill="#87BFE7"/>
</svg>
