<svg width="54" height="54" viewBox="0 0 54 54" fill="none" xmlns="http://www.w3.org/2000/svg">
<path d="M50.858 8.27007H42.6562C42.1545 5.38454 39.6338 3.18298 36.6069 3.18298C33.5801 3.18298 31.0593 5.38454 30.5576 8.27007H22.3557C20.6231 8.27007 19.2136 9.67966 19.2136 11.4122V16.7236H13.3439C13.9247 15.907 14.2677 14.91 14.2677 13.8338C14.2677 11.0771 12.025 8.83443 9.26851 8.83443C6.51176 8.83443 4.26917 11.0771 4.26917 13.8338C4.26917 15.2561 4.86729 16.5406 5.824 17.4519C2.4049 18.8601 0 22.1578 0 25.9919V33.847C0 36.2351 1.85699 38.2069 4.2349 38.4596V48.7073H1.59638C1.01398 48.7073 0.541689 49.1796 0.541689 49.762C0.541689 50.3444 1.01398 50.8167 1.59638 50.8167H30.6415C30.644 50.8167 30.6466 50.817 30.6492 50.817C30.6518 50.817 30.6544 50.8167 30.657 50.8167H43.2587C43.2614 50.8167 43.264 50.817 43.2665 50.817C43.2691 50.817 43.2717 50.8167 43.2742 50.8167H51.9502C52.5326 50.8167 53.0049 50.3444 53.0049 49.762C53.0049 49.1796 52.5326 48.7073 51.9502 48.7073H44.0252L41.003 39.7027H50.8579C52.5905 39.7027 54 38.2932 54 36.5605V11.4122C54.0001 9.67966 52.5906 8.27007 50.858 8.27007ZM36.6069 5.29236C38.4656 5.29236 40.0346 6.55651 40.4994 8.27007H32.7144C33.1792 6.55651 34.7482 5.29236 36.6069 5.29236ZM9.2684 10.9438C10.8618 10.9438 12.1583 12.2402 12.1583 13.8338C12.1583 15.4272 10.8618 16.7236 9.2684 16.7236C7.67487 16.7236 6.37845 15.4272 6.37845 13.8338C6.37845 12.2402 7.67487 10.9438 9.2684 10.9438ZM12.8413 22.2042V48.7073H10.6474V36.8508C10.6474 36.2684 10.1751 35.7961 9.59272 35.7961C9.01032 35.7961 8.53803 36.2684 8.53803 36.8508V48.7073H6.34427V26.2652C6.34427 25.6827 5.87209 25.2105 5.28958 25.2105C4.70719 25.2105 4.2349 25.6828 4.2349 26.2652V36.3292C3.02453 36.098 2.10938 35.0731 2.10938 33.847V25.9919C2.10938 22.0445 5.43576 18.833 9.52448 18.833H28.9068C28.4631 20.177 27.1952 21.1495 25.7045 21.1495H13.896C13.3136 21.1495 12.8413 21.6217 12.8413 22.2042ZM41.8002 48.7072H32.1155L35.1377 39.7026H38.778L41.8002 48.7072ZM51.8907 36.5605C51.8907 37.13 51.4274 37.5933 50.858 37.5933C50.858 37.5933 34.3995 37.5933 34.3972 37.5933H22.3557C21.7863 37.5933 21.323 37.13 21.323 36.5605V30.3897C21.323 29.8073 20.8507 29.335 20.2683 29.335C19.6859 29.335 19.2136 29.8073 19.2136 30.3897V36.5605C19.2136 38.2932 20.6231 39.7027 22.3557 39.7027H32.9126L29.8904 48.7073H14.9506V23.259H25.7045C28.7265 23.259 31.1852 20.8004 31.1852 17.7784C31.1852 17.1959 30.7129 16.7237 30.1305 16.7237H21.323V11.4123C21.323 10.8429 21.7863 10.3796 22.3557 10.3796H50.858C51.4274 10.3796 51.8907 10.8429 51.8907 11.4123V36.5605Z" fill="#87BFE7"/>
<path d="M45.6823 22.7062C45.2703 22.2943 44.6027 22.2943 44.1907 22.7061L39.673 27.2238L38.0253 25.5762C37.6134 25.1645 36.9458 25.1645 36.5337 25.5762L30.7103 31.3996L29.0838 29.773C28.8859 29.5753 28.6177 29.4641 28.338 29.4641C28.0583 29.4641 27.79 29.5753 27.5923 29.773L24.5668 32.7986C24.1549 33.2105 24.1549 33.8783 24.5668 34.2903C24.7728 34.4961 25.0427 34.5992 25.3125 34.5992C25.5824 34.5992 25.8523 34.4961 26.0583 34.2903L28.3379 32.0106L29.9645 33.6371C30.3764 34.0488 31.044 34.0488 31.4561 33.6371L37.2795 27.8137L38.9271 29.4614C39.3391 29.8731 40.0067 29.8731 40.4188 29.4614L45.6823 24.1978C46.0941 23.786 46.0941 23.1181 45.6823 22.7062Z" fill="#87BFE7"/>
</svg>
