<svg width="52" height="54" viewBox="0 0 52 54" fill="none" xmlns="http://www.w3.org/2000/svg">
<path d="M50.5879 4.46882H47.2117V1.05469C47.2117 0.472184 46.7395 0 46.157 0C45.5745 0 45.1023 0.472184 45.1023 1.05469V5.0875L40.6931 9.50875C36.2452 5.46033 30.5275 3.242 24.4762 3.242C18.0339 3.242 11.977 5.75079 7.42161 10.3062C2.86621 14.8616 0.357422 20.9185 0.357422 27.3608C0.357422 33.8032 2.86621 39.86 7.42161 44.4154C8.13026 45.1241 8.87529 45.783 9.65238 46.3909L3.8438 52.1994C3.43194 52.6113 3.43194 53.2791 3.8438 53.6911C4.04978 53.897 4.31967 54 4.58957 54C4.85946 54 5.12946 53.897 5.33534 53.6911L11.3947 47.6316C15.2579 50.1356 19.7635 51.4796 24.4761 51.4796C29.2118 51.4796 33.7382 50.1224 37.6139 47.5949L43.7101 53.6911C43.9161 53.897 44.186 54 44.4559 54C44.7258 54 44.9958 53.897 45.2017 53.6911C45.6135 53.2792 45.6136 52.6114 45.2017 52.1994L39.3516 46.3494C40.11 45.7529 40.8379 45.1081 41.5307 44.4154C46.0861 39.86 48.5949 33.8032 48.5949 27.3608C48.5949 23.6917 47.7919 20.1679 46.2082 16.8874C45.9549 16.3628 45.3242 16.1428 44.7998 16.3962C44.2752 16.6494 44.0553 17.2799 44.3086 17.8045C45.7531 20.7966 46.4855 24.0119 46.4855 27.3608C46.4855 39.4969 36.6121 49.3703 24.476 49.3703C12.3399 49.3703 2.46648 39.497 2.46648 27.3608C2.46648 15.2247 12.3399 5.35127 24.476 5.35127C29.9651 5.35127 35.1539 7.35075 39.2023 11.0033L35.5005 14.7153C32.4444 12.0443 28.5694 10.584 24.4761 10.584C15.2254 10.584 7.69931 18.11 7.69931 27.3608C7.69931 36.6116 15.2256 44.1376 24.4763 44.1376C33.7271 44.1376 41.2531 36.6116 41.2531 27.3608C41.2531 25.8688 41.0571 24.3889 40.6702 22.9619C39.9914 20.4575 38.7303 18.1393 37.0002 16.1987L41.459 11.7278C41.4604 11.7264 41.462 11.7253 41.4633 11.7239C41.4646 11.7226 41.4656 11.7213 41.4668 11.7201L46.5948 6.57819H50.588C51.1705 6.57819 51.6427 6.10601 51.6427 5.5235C51.6427 4.941 51.1704 4.46882 50.5879 4.46882ZM38.6343 23.5137C38.9725 24.7609 39.1439 26.0552 39.1439 27.3608C39.1439 35.4485 32.5641 42.0282 24.4764 42.0282C16.3888 42.0282 9.809 35.4484 9.809 27.3608C9.809 19.2733 16.3888 12.6934 24.4764 12.6934C28.0074 12.6934 31.3532 13.9357 34.0082 16.212L29.6539 20.5781C28.2166 19.4783 26.4219 18.8228 24.4764 18.8228C19.7686 18.8228 15.9384 22.6529 15.9384 27.3608C15.9384 32.0687 19.7685 35.8988 24.4764 35.8988C29.1844 35.8988 33.0145 32.0687 33.0145 27.3608C33.0145 25.3572 32.319 23.514 31.159 22.056L35.5077 17.6955C36.9782 19.3731 38.0521 21.3651 38.6343 23.5137ZM23.8725 27.8686C24.0784 28.0739 24.3479 28.1765 24.6173 28.1765C24.8877 28.1765 25.1581 28.0733 25.3642 27.8666L29.6578 23.5613C30.441 24.6265 30.905 25.9402 30.905 27.3608C30.905 30.9055 28.0211 33.7894 24.4763 33.7894C20.9315 33.7894 18.0477 30.9055 18.0477 27.3608C18.0477 23.8161 20.9315 20.9322 24.4763 20.9322C25.8406 20.9322 27.106 21.3606 28.1477 22.0882L23.8705 26.377C23.4592 26.7895 23.46 27.4572 23.8725 27.8686Z" fill="#87BFE7"/>
</svg>
