<svg width="52" height="21" viewBox="0 0 52 21" fill="none" xmlns="http://www.w3.org/2000/svg">
<path d="M0.59375 20V0.21875H4.29688V6.89844C5.21875 5.94531 6.29688 5.46875 7.53125 5.46875C9.25 5.46875 10.6797 6.13281 11.8203 7.46094C12.9766 8.77344 13.5547 10.5938 13.5547 12.9219C13.5547 14.2344 13.3672 15.3984 12.9922 16.4141C12.6328 17.4141 12.1562 18.1953 11.5625 18.7578C10.9688 19.3203 10.3359 19.7344 9.66406 20C8.99219 20.2812 8.30469 20.4219 7.60156 20.4219C6.86719 20.4219 6.1875 20.2422 5.5625 19.8828C4.9375 19.5234 4.48438 19.1016 4.20312 18.6172V20H0.59375ZM4.27344 12.9219C4.27344 14.2656 4.50781 15.3203 4.97656 16.0859C5.46094 16.8516 6.13281 17.2344 6.99219 17.2344C7.78906 17.2344 8.4375 16.875 8.9375 16.1562C9.4375 15.4375 9.6875 14.3594 9.6875 12.9219C9.6875 11.5938 9.45312 10.5547 8.98438 9.80469C8.51562 9.03906 7.85156 8.65625 6.99219 8.65625C6.08594 8.65625 5.40625 9.04688 4.95312 9.82812C4.5 10.6094 4.27344 11.6406 4.27344 12.9219ZM15.3716 4.39062V0.546875H19.145V4.39062H15.3716ZM15.4184 20V5.89062H19.1216V20H15.4184ZM20.7275 16.9531L23.3525 15.4062C24.3056 16.75 25.5009 17.4219 26.9384 17.4219C27.5322 17.4219 27.9931 17.2969 28.3213 17.0469C28.665 16.7812 28.8369 16.4609 28.8369 16.0859C28.8369 15.9609 28.8134 15.8359 28.7666 15.7109C28.7353 15.5859 28.6728 15.4766 28.5791 15.3828C28.5009 15.2734 28.415 15.1797 28.3213 15.1016C28.2275 15.0234 28.0947 14.9453 27.9228 14.8672C27.7666 14.7734 27.6259 14.7031 27.5009 14.6562C27.3759 14.5938 27.2041 14.5234 26.9853 14.4453C26.7822 14.3672 26.6103 14.3125 26.4697 14.2812C26.3291 14.2344 26.1338 14.1719 25.8838 14.0938C25.6338 14.0156 25.4463 13.9531 25.3213 13.9062C24.1338 13.5156 23.1806 13.0078 22.4619 12.3828C21.7588 11.7578 21.4072 10.8438 21.4072 9.64062C21.4072 8.35938 21.9541 7.34375 23.0478 6.59375C24.1572 5.84375 25.4619 5.46875 26.9619 5.46875C28.1338 5.46875 29.2509 5.78125 30.3134 6.40625C31.3916 7.01562 32.1963 7.82031 32.7275 8.82031L30.2666 10.2734C29.2666 9.07031 28.1806 8.46875 27.0088 8.46875C26.4463 8.46875 26.0009 8.58594 25.6728 8.82031C25.3603 9.05469 25.2041 9.35156 25.2041 9.71094C25.2041 9.88281 25.2353 10.0469 25.2978 10.2031C25.3603 10.3438 25.4619 10.4766 25.6025 10.6016C25.7588 10.7266 25.8994 10.8359 26.0244 10.9297C26.165 11.0234 26.3603 11.1172 26.6103 11.2109C26.8759 11.3047 27.0791 11.3828 27.2197 11.4453C27.3759 11.4922 27.6181 11.5703 27.9463 11.6797C28.2744 11.7734 28.5088 11.8438 28.6494 11.8906C31.3369 12.7969 32.6806 14.2109 32.6806 16.1328C32.6806 17.3203 32.1963 18.3359 31.2275 19.1797C30.2588 20.0078 28.8681 20.4219 27.0556 20.4219C25.6338 20.4219 24.3603 20.1094 23.2353 19.4844C22.1259 18.8438 21.29 18 20.7275 16.9531ZM34.4272 4.39062V0.546875H38.2006V4.39062H34.4272ZM34.4741 20V5.89062H38.1772V20H34.4741ZM39.83 20V17.5391L46.5566 9.05469H40.3456V5.89062H51.455V8.21094L44.6581 16.8125H51.7831V20H39.83Z" fill="#1080D0"/>
</svg>
