<svg width="54" height="54" viewBox="0 0 54 54" fill="none" xmlns="http://www.w3.org/2000/svg">
<g clip-path="url(#clip0_173_1513)">
<path d="M49.9386 20.0112L47.5742 19.7316C47.3169 19.0036 47.02 18.2875 46.687 17.5913L48.1615 15.7213C49.6048 13.8904 49.6008 11.4174 48.1525 9.96891L44.0305 5.84687C42.582 4.39836 40.1089 4.39446 38.2779 5.83812L36.4079 7.31268C35.7115 6.9795 34.9954 6.68261 34.2675 6.42547L33.9879 4.06118C33.7139 1.74593 31.9626 0 29.9141 0H24.0847C22.0361 0 20.2847 1.74604 20.0109 4.06139L19.7314 6.42568C19.0038 6.68282 18.2881 6.9795 17.5921 7.31246L15.7221 5.83791C13.8913 4.39436 11.4183 4.39794 9.96954 5.84666L5.84761 9.96859C4.3991 11.4172 4.3952 13.8902 5.83875 15.721L7.3131 17.591C6.97992 18.2873 6.68303 19.0035 6.42579 19.7313L4.06139 20.0109C1.74604 20.2847 0 22.0361 0 24.0847V29.9141C0 31.9627 1.74593 33.714 4.06118 33.9879L6.42547 34.2675C6.68261 34.9955 6.9795 35.7116 7.31257 36.4079L5.83801 38.2779C4.39436 40.1087 4.39805 42.5818 5.84677 44.0305L9.96869 48.1524C11.4174 49.601 13.8904 49.6046 15.7211 48.1613L17.591 46.6869C18.2878 47.0202 19.0037 47.3171 19.7314 47.5742L20.0109 49.9385C20.2847 52.254 22.036 54 24.0847 54H29.9141C31.9626 54 33.7139 52.2541 33.9879 49.9388L34.2675 47.5745C34.996 47.3173 35.7125 47.0202 36.409 46.6869L38.2789 48.1613C40.1096 49.6047 42.5826 49.6009 44.0313 48.1524L48.1531 44.0305C49.6018 42.582 49.6056 40.1088 48.162 38.278L46.6874 36.4079C47.0205 35.7116 47.3174 34.9955 47.5745 34.2675L49.9387 33.9879C52.254 33.714 54 31.9627 54 29.9141V24.0847C54 22.0361 52.254 20.2848 49.9386 20.0112ZM51.8906 29.9141C51.8906 30.894 50.945 31.7448 49.6912 31.8931L46.6638 32.2513C46.2528 32.2999 45.9081 32.5845 45.7827 32.9789C45.447 34.0344 45.0186 35.068 44.5094 36.0511C44.3188 36.4188 44.3611 36.8641 44.6176 37.1892L46.5059 39.584C47.2879 40.5757 47.3548 41.8461 46.6619 42.5389L42.54 46.6609C41.847 47.3537 40.5768 47.2867 39.5852 46.5049L37.1904 44.6168C36.8652 44.3605 36.4202 44.3178 36.0522 44.5085C35.0689 45.018 34.0351 45.4465 32.9791 45.7824C32.5847 45.9078 32.3001 46.2525 32.2515 46.6635L31.8933 49.6909C31.7448 50.9449 30.894 51.8905 29.9142 51.8905H24.0848C23.1048 51.8905 22.254 50.9449 22.1057 49.6909L21.7478 46.6633C21.6991 46.2522 21.4146 45.9075 21.0201 45.7821C19.9653 45.4466 18.9316 45.0181 17.9479 44.5085C17.7949 44.4292 17.6285 44.3903 17.463 44.3903C17.2305 44.3903 16.9998 44.467 16.8098 44.6169L14.415 46.505C13.4233 47.2868 12.1531 47.354 11.4602 46.661L7.3382 42.539C6.64516 41.846 6.71235 40.5757 7.49429 39.5841L9.38261 37.1893C9.639 36.8642 9.6814 36.4189 9.49082 36.0512C8.98161 35.0681 8.5533 34.0346 8.21749 32.979C8.09209 32.5846 7.74742 32.3 7.33641 32.2514L4.30893 31.8932C3.05501 31.7448 2.10938 30.894 2.10938 29.9141V24.0847C2.10938 23.1048 3.05511 22.254 4.30914 22.1058L7.33672 21.7479C7.74784 21.6992 8.09251 21.4147 8.21791 21.0202C8.55362 19.9648 8.98214 18.9312 9.49145 17.9481C9.68203 17.5804 9.63974 17.1351 9.38324 16.8099L7.49514 14.415C6.71319 13.4234 6.64622 12.1532 7.33915 11.4602L11.461 7.3382C12.1538 6.64516 13.4243 6.71235 14.4158 7.49429L16.8106 9.38271C17.1359 9.63921 17.5813 9.68161 17.9488 9.49092C18.9314 8.98182 19.9648 8.55352 21.02 8.21781C21.4145 8.09241 21.699 7.74773 21.7477 7.33662L22.1056 4.30914C22.254 3.05511 23.1047 2.10938 24.0847 2.10938H29.9141C30.8939 2.10938 31.7447 3.05501 31.8931 4.30893L32.2513 7.33641C32.2999 7.74752 32.5846 8.0922 32.979 8.2176C34.0342 8.55309 35.0679 8.98161 36.0511 9.49092C36.4186 9.6815 36.8641 9.63921 37.1893 9.38271L39.5841 7.49429C40.5759 6.71256 41.8462 6.64516 42.539 7.3382L46.6611 11.4601C47.3539 12.1531 47.2867 13.4233 46.5051 14.4149L44.6169 16.8098C44.3605 17.1351 44.3181 17.5803 44.5087 17.948C45.0179 18.9307 45.4463 19.9643 45.7822 21.02C45.9076 21.4145 46.2523 21.6991 46.6634 21.7477L49.691 22.1056C50.945 22.254 51.8906 23.1047 51.8906 24.0847V29.9141Z" fill="#87BFE7"/>
<path d="M27 16.4155C21.1637 16.4155 16.4155 21.1637 16.4155 27C16.4155 32.8362 21.1636 37.5844 27 37.5844C32.8363 37.5844 37.5844 32.8363 37.5844 27C37.5844 21.1637 32.8362 16.4155 27 16.4155ZM27 35.475C22.3269 35.475 18.5249 31.6732 18.5249 27C18.5249 22.3267 22.3267 18.5249 27 18.5249C31.6732 18.5249 35.475 22.3269 35.475 27C35.475 31.6731 31.6731 35.475 27 35.475Z" fill="#87BFE7"/>
<path d="M42.2296 25.9456C41.6472 25.9456 41.175 26.4178 41.175 27.0003C41.175 33.2445 37.1729 38.6846 31.2163 40.5373C30.6601 40.7104 30.3493 41.3015 30.5224 41.8576C30.663 42.3096 31.0795 42.5994 31.5292 42.5994C31.633 42.5994 31.7386 42.584 31.8427 42.5514C35.0886 41.5419 38.003 39.4792 40.0489 36.7436C42.1655 33.9132 43.2843 30.5441 43.2843 27.0003C43.2843 26.4178 42.812 25.9456 42.2296 25.9456Z" fill="#87BFE7"/>
</g>
<defs>
<clipPath id="clip0_173_1513">
<rect width="54" height="54" fill="white"/>
</clipPath>
</defs>
</svg>
