<svg width="54" height="54" viewBox="0 0 54 54" fill="none" xmlns="http://www.w3.org/2000/svg">
<path d="M46.5439 0H7.45591C5.03045 0 3.05713 1.97332 3.05713 4.39878V22.6002C3.05713 25.0257 5.03034 26.9989 7.4558 26.9989H9.05607L13.3804 32.7991C13.8508 33.4299 14.5578 33.777 15.3033 33.777C15.556 33.777 15.8131 33.7372 16.0669 33.6549C17.0693 33.3301 17.7261 32.4394 17.7407 31.386L17.801 26.999H22.6519C22.349 27.7448 22.1806 28.559 22.1806 29.4122C22.1806 31.4659 23.1489 33.2964 24.6514 34.4752C19.8184 36.1914 16.359 40.7061 16.359 45.9918V51.8895H10.0409C9.45823 51.8895 8.98583 52.3619 8.98583 52.9446C8.98583 53.5273 9.45823 53.9997 10.0409 53.9997H44.9257C45.5084 53.9997 45.9808 53.5273 45.9808 52.9446C45.9808 52.3619 45.5084 51.8895 44.9257 51.8895H41.5693V45.992C41.5693 40.527 37.8708 35.8865 32.78 34.3108C34.167 33.1298 35.0491 31.3726 35.0491 29.4123C35.0491 25.8646 32.1628 22.9782 28.615 22.9782C26.8291 22.9782 25.2113 23.7101 24.0445 24.8889H16.7606C16.1835 24.8889 15.7135 25.3525 15.7055 25.9294L15.6309 31.357C15.6283 31.5406 15.513 31.6163 15.4165 31.6476C15.3202 31.6787 15.1821 31.6851 15.0724 31.5381L10.4317 25.3134C10.2326 25.0462 9.91902 24.8889 9.58584 24.8889H7.45591C6.19397 24.8889 5.16734 23.8623 5.16734 22.6003V4.39878C5.16734 3.13685 6.19397 2.11011 7.45591 2.11011H46.5439C47.8059 2.11011 48.8325 3.13674 48.8325 4.39878V22.6002C48.8325 23.8622 47.8059 24.8888 46.5439 24.8888H42.5121C41.9294 24.8888 41.457 25.3612 41.457 25.9439C41.457 26.5266 41.9294 26.999 42.5121 26.999H46.5439C48.9694 26.999 50.9426 25.0258 50.9426 22.6003V4.39878C50.9428 1.97332 48.9694 0 46.5439 0ZM39.4592 45.9919V51.8896H35.9807V46.3644C35.9807 45.7817 35.5083 45.3093 34.9256 45.3093C34.3429 45.3093 33.8705 45.7817 33.8705 46.3644V51.8896H24.2446V46.3644C24.2446 45.7817 23.7722 45.3093 23.1895 45.3093C22.6068 45.3093 22.1344 45.7817 22.1344 46.3644V51.8896H18.4697V45.9919C18.4697 40.3976 23.1777 35.8464 28.9644 35.8464C34.7512 35.8464 39.4592 40.3976 39.4592 45.9919ZM28.6151 25.0883C30.9993 25.0883 32.939 27.028 32.939 29.4122C32.939 31.7964 30.9993 33.7361 28.6151 33.7361C26.2309 33.7361 24.2912 31.7964 24.2912 29.4122C24.2912 27.028 26.2309 25.0883 28.6151 25.0883Z" fill="#87BFE7"/>
<path d="M21.018 14.0782C21.6007 14.0782 22.0731 13.6058 22.0731 13.0231C22.0731 12.4403 21.6007 11.968 21.018 11.968C20.4353 11.968 19.9629 12.4403 19.9629 13.0231C19.9629 13.6058 20.4353 14.0782 21.018 14.0782Z" fill="#87BFE7"/>
<path d="M27.1737 14.0782C27.7564 14.0782 28.2288 13.6058 28.2288 13.0231C28.2288 12.4403 27.7564 11.968 27.1737 11.968C26.5909 11.968 26.1186 12.4403 26.1186 13.0231C26.1186 13.6058 26.5909 14.0782 27.1737 14.0782Z" fill="#87BFE7"/>
<path d="M33.0195 14.0782C33.6023 14.0782 34.0746 13.6058 34.0746 13.0231C34.0746 12.4403 33.6023 11.968 33.0195 11.968C32.4368 11.968 31.9644 12.4403 31.9644 13.0231C31.9644 13.6058 32.4368 14.0782 33.0195 14.0782Z" fill="#87BFE7"/>
</svg>
