<svg width="54" height="54" viewBox="0 0 54 54" fill="none" xmlns="http://www.w3.org/2000/svg">
<g clip-path="url(#clip0_173_1367)">
<path d="M27.4647 7.99819C17.1154 7.99819 8.69554 16.4179 8.69554 26.7674C8.69554 37.1168 17.1154 45.5367 27.4647 45.5367C37.8141 45.5367 46.234 37.1168 46.234 26.7674C46.234 16.4179 37.8141 7.99819 27.4647 7.99819ZM21.6269 11.1641C20.4359 12.5564 19.4215 14.371 18.6458 16.4978H14.3553C16.2287 14.1115 18.7389 12.2481 21.6269 11.1641ZM12.945 18.6072H17.9821C17.4054 20.7646 17.0541 23.1633 16.9778 25.7127H10.8392C11.0006 23.1441 11.7463 20.7318 12.945 18.6072ZM10.8394 27.8221H16.978C17.0473 30.138 17.3442 32.3289 17.8303 34.3282H12.6219C11.6117 32.3535 10.9856 30.1519 10.8394 27.8221ZM13.9063 36.4376H18.4359C19.2346 38.8238 20.3253 40.8492 21.6268 42.3707C18.5015 41.1975 15.8189 39.1112 13.9063 36.4376ZM26.41 43.1859C24.674 42.7401 23.0357 41.2015 21.7126 38.7411C21.3278 38.0257 20.9826 37.2546 20.6779 36.4376H26.41V43.1859ZM26.41 34.3282H20.0094C19.4767 32.3233 19.1623 30.1199 19.0886 27.8221H26.41V34.3282ZM26.41 25.7127H19.0886C19.1698 23.1834 19.5429 20.7688 20.1771 18.6072H26.41V25.7127ZM26.41 16.4978H20.9125C21.1568 15.9013 21.4234 15.3314 21.7126 14.7936C23.0357 12.3333 24.674 10.7947 26.41 10.349V16.4978ZM41.9846 18.6072C43.1833 20.7318 43.929 23.1441 44.0903 25.7127H37.9517C37.8753 23.1633 37.524 20.7646 36.9473 18.6072H41.9846ZM40.5744 16.4978H36.2838C35.5081 14.371 34.4937 12.5564 33.3026 11.1641C36.1908 12.2481 38.7009 14.1115 40.5744 16.4978ZM28.5194 10.349C30.2554 10.7948 31.8938 12.3334 33.2169 14.7936C33.5061 15.3314 33.7727 15.9013 34.017 16.4978H28.5194V10.349ZM28.5194 18.6072H34.7524C35.3866 20.7688 35.7596 23.1834 35.8408 25.7127H28.5194V18.6072ZM28.5194 27.8221H35.8408C35.767 30.1199 35.4527 32.3233 34.9201 34.3282H28.5194V27.8221ZM28.5194 43.1859V36.4376H34.2515C33.9468 37.2546 33.6016 38.0257 33.2169 38.7411C31.8939 41.2015 30.2555 42.7401 28.5194 43.1859ZM33.3025 42.3707C34.6041 40.8492 35.6949 38.8238 36.4935 36.4376H41.0231C39.1108 39.1112 36.4282 41.1975 33.3025 42.3707ZM37.0994 34.3282C37.5855 32.3288 37.8823 30.138 37.9517 27.8221H44.0904C43.944 30.1519 43.3178 32.3535 42.3078 34.3282H37.0994Z" fill="#87BFE7"/>
<path d="M49.1727 0C46.6297 0 44.5607 2.06887 44.5607 4.61203C44.5608 7.15499 46.6297 9.22386 49.1727 9.22386C51.7157 9.22386 53.7846 7.15499 53.7846 4.61193C53.7846 2.06887 51.7158 0 49.1727 0ZM49.1727 7.11459C47.7928 7.11459 46.6701 5.99188 46.6701 4.61203C46.6702 3.23208 47.7927 2.10937 49.1727 2.10937C50.5526 2.10937 51.6753 3.23208 51.6753 4.61203C51.6752 5.99188 50.5526 7.11459 49.1727 7.11459Z" fill="#87BFE7"/>
<path d="M4.82737 0C2.28431 0 0.215332 2.06887 0.215332 4.61203C0.215332 7.15499 2.2842 9.22386 4.82726 9.22386C7.37032 9.22386 9.4394 7.15499 9.4394 4.61193C9.43919 2.06887 7.37032 0 4.82737 0ZM4.82737 7.11459C3.44752 7.11459 2.32481 5.99188 2.32481 4.61203C2.3247 3.23208 3.44742 2.10937 4.82737 2.10937C6.20721 2.10937 7.33003 3.23208 7.33003 4.61203C7.33003 5.99188 6.20721 7.11459 4.82737 7.11459Z" fill="#87BFE7"/>
<path d="M49.1727 44.7761C46.6297 44.7761 44.5607 46.845 44.5607 49.388C44.5607 51.9311 46.6296 54.0001 49.1727 54.0001C51.7157 54.0001 53.7846 51.9312 53.7846 49.388C53.7845 46.845 51.7158 44.7761 49.1727 44.7761ZM49.1727 51.8906C47.7928 51.8906 46.6701 50.7679 46.6701 49.3879C46.6701 48.0081 47.7928 46.8854 49.1727 46.8854C50.5526 46.8854 51.6753 48.0081 51.6753 49.3879C51.6752 50.7679 50.5525 51.8906 49.1727 51.8906Z" fill="#87BFE7"/>
<path d="M4.82739 44.7761C2.28444 44.7761 0.215458 46.845 0.215458 49.388C0.215458 51.9311 2.28433 54 4.82739 54C7.37045 54 9.43942 51.9311 9.43942 49.3879C9.43921 46.845 7.37034 44.7761 4.82739 44.7761ZM4.82739 51.8906C3.44754 51.8906 2.32483 50.7679 2.32483 49.3879C2.32483 48.0081 3.44754 46.8854 4.82739 46.8854C6.20734 46.8854 7.33005 48.0081 7.33005 49.3879C7.32984 50.7679 6.20723 51.8906 4.82739 51.8906Z" fill="#87BFE7"/>
</g>
<defs>
<clipPath id="clip0_173_1367">
<rect width="54" height="54" fill="white"/>
</clipPath>
</defs>
</svg>
