<svg width="54" height="54" viewBox="0 0 54 54" fill="none" xmlns="http://www.w3.org/2000/svg">
<g clip-path="url(#clip0_173_1283)">
<path d="M51.5109 51.8906H49.1977V18.3026C49.1977 16.7393 47.9257 15.4674 46.3625 15.4674H41.192C39.6286 15.4674 38.3568 16.7394 38.3568 18.3026V51.8906H32.483V33.5206C32.483 31.9573 31.2111 30.6854 29.6478 30.6854H24.4773C22.9139 30.6854 21.6421 31.9574 21.6421 33.5206V51.8906H15.7683V42.3769C15.7683 40.8136 14.4963 39.5417 12.9331 39.5417H7.76249C6.19912 39.5417 4.92727 40.8137 4.92727 42.3769V51.8906H2.48926C1.90675 51.8906 1.43457 52.3628 1.43457 52.9453C1.43457 53.5278 1.90675 54 2.48926 54H51.5109C52.0934 54 52.5656 53.5278 52.5656 52.9453C52.5656 52.3628 52.0934 51.8906 51.5109 51.8906ZM13.6587 51.8906H7.03654V42.3769C7.03654 41.9767 7.36213 41.6511 7.76238 41.6511H12.9329C13.3331 41.6511 13.6587 41.9767 13.6587 42.3769V51.8906ZM30.3735 51.8906H23.7513V33.5206C23.7513 33.1204 24.0769 32.7948 24.4772 32.7948H29.6477C30.0478 32.7948 30.3735 33.1204 30.3735 33.5206V51.8906ZM47.0883 51.8906H40.4661V18.3026C40.4661 17.9024 40.7917 17.5768 41.192 17.5768H46.3625C46.7627 17.5768 47.0883 17.9024 47.0883 18.3026V51.8906Z" fill="#87BFE7"/>
<path d="M49.1953 1.10911C49.21 0.821285 49.1088 0.528609 48.889 0.308812C48.6692 0.0890156 48.3765 -0.0123398 48.0887 0.00253125C48.0717 0.00179297 48.0549 0 48.0376 0H41.6568C41.0743 0 40.6021 0.472184 40.6021 1.05469C40.6021 1.63719 41.0743 2.10938 41.6568 2.10938H45.5968L35.1705 12.5358L31.2386 8.60393C31.0408 8.40618 30.7725 8.29501 30.4928 8.29501C30.2131 8.29501 29.9448 8.40618 29.747 8.60393L10.787 27.564C10.3752 27.9759 10.3752 28.6437 10.787 29.0557C10.993 29.2615 11.2629 29.3644 11.5328 29.3644C11.8027 29.3644 12.0727 29.2615 12.2786 29.0555L30.4928 10.8411L34.4247 14.773C34.8365 15.1849 35.5044 15.1849 35.9163 14.773L47.0884 3.60102V7.16692C47.0884 7.74942 47.5606 8.22161 48.1431 8.22161C48.7256 8.22161 49.1978 7.74942 49.1978 7.16692V1.16016C49.1978 1.14296 49.196 1.1262 49.1953 1.10911Z" fill="#87BFE7"/>
</g>
<defs>
<clipPath id="clip0_173_1283">
<rect width="54" height="54"/>
</clipPath>
</defs>
</svg>
