<svg width="54" height="54" viewBox="0 0 54 54" fill="none" xmlns="http://www.w3.org/2000/svg">
<path d="M54 25.0287V24.9194C54 22.4773 52.0132 20.4904 49.5709 20.4904H36.9298C38.5554 17.6707 39.4331 14.51 39.485 11.2424C39.4937 10.6944 39.4894 10.1287 39.4848 9.52974C39.4818 9.14278 39.4786 8.73356 39.4786 8.29143C39.4786 6.00624 37.624 4.14651 35.3421 4.14082C34.9165 4.1366 33.4986 4.20673 32.3829 5.37195C31.8751 5.90236 31.5243 6.57103 31.3685 7.30541C31.0671 8.72575 30.691 9.93843 30.2187 11.0127C28.4877 14.9501 26.0209 18.2394 22.8869 20.7891C22.0527 21.4678 21.1665 22.0936 20.2412 22.6622C19.894 21.4113 18.746 20.4903 17.3861 20.4903H1.05469C0.472184 20.4903 0 20.9626 0 21.545V48.8047C0 49.3871 0.472184 49.8594 1.05469 49.8594H17.3861C18.9338 49.8594 20.2072 48.6667 20.3375 47.1523C22.3631 48.9022 24.926 49.8594 27.6212 49.8594H49.5708C52.0131 49.8594 54 47.8725 54 45.4304C54 44.08 53.3927 42.869 52.4367 42.056C53.3927 41.2429 54 40.0319 54 38.6815V38.5493C54 37.1989 53.3927 35.988 52.4367 35.1749C53.3926 34.3618 54 33.1507 54 31.8005V31.7775C54 30.4272 53.3927 29.2162 52.4367 28.4032C53.3927 27.5902 54 26.3791 54 25.0287ZM18.24 24.4017C18.24 24.4035 18.24 24.4053 18.24 24.4071V46.8964C18.24 47.3671 17.857 47.7501 17.3861 47.7501H13.5429V38.561C13.5429 37.9786 13.0707 37.5063 12.4882 37.5063C11.9057 37.5063 11.4336 37.9786 11.4336 38.561V47.7501H2.10938V22.5997H17.3861C17.8569 22.5997 18.24 22.9828 18.24 23.4536V24.4017ZM46.6497 29.4579H49.5708C50.85 29.4579 51.8906 30.4984 51.8906 31.7775V31.8005C51.8906 33.0797 50.85 34.1202 49.5708 34.1202H46.6497C46.0672 34.1202 45.595 34.5925 45.595 35.1749C45.595 35.7573 46.0672 36.2296 46.6497 36.2296H49.5708C50.8499 36.2296 51.8905 37.2701 51.8905 38.5493V38.6815C51.8905 39.9606 50.8499 41.0013 49.5707 41.0013H46.6496C46.0671 41.0013 45.5949 41.4736 45.5949 42.056C45.5949 42.6384 46.0671 43.1107 46.6496 43.1107H49.5707C50.8498 43.1107 51.8904 44.1512 51.8904 45.4304C51.8904 46.7095 50.8498 47.75 49.5706 47.75H27.6213C25.2679 47.75 23.0386 46.8505 21.3441 45.217L20.3494 44.258V25.0441C21.7171 24.2821 23.0161 23.4032 24.2181 22.4253C27.6141 19.6624 30.2827 16.1083 32.1496 11.8617C32.6808 10.6536 33.1001 9.30647 33.4319 7.74321C33.5073 7.38799 33.667 7.08086 33.9065 6.83069C34.4256 6.28848 35.1043 6.24977 35.2869 6.24977C35.3056 6.24977 35.3178 6.25019 35.3314 6.25019C36.455 6.25019 37.3691 7.16587 37.3692 8.29143C37.3692 8.73947 37.3723 9.15406 37.3754 9.54609C37.3798 10.1323 37.3841 10.686 37.3758 11.209C37.3202 14.7057 36.2006 18.0667 34.1379 20.9284C33.9064 21.2496 33.8742 21.6733 34.0547 22.0257C34.2351 22.3782 34.5977 22.5997 34.9935 22.5997H49.5708C50.8499 22.5997 51.8905 23.6403 51.8905 24.9194V25.0287C51.8905 26.3078 50.85 27.3485 49.5708 27.3485H46.6497C46.0672 27.3485 45.595 27.8208 45.595 28.4032C45.595 28.9856 46.0672 29.4579 46.6497 29.4579Z" fill="#87BFE7"/>
</svg>
